<?xml version="1.0" encoding="UTF-8"?>
<svg width="200px" height="200px" viewBox="0 0 200 200" version="1.1" xmlns="http://www.w3.org/2000/svg" xmlns:xlink="http://www.w3.org/1999/xlink">
    <!-- Generator: Sketch 44.1 (41455) - http://www.bohemiancoding.com/sketch -->
    <title>favicon</title>
    <desc>Created with Sketch.</desc>
    <defs></defs>
    <g id="Images" stroke="none" stroke-width="1" fill="none" fill-rule="evenodd">
        <g id="favicon" fill-rule="nonzero" fill="#151A2C">
            <g id="Group-3">
                <polygon id="Stroke-16" points="99.6070806 103.458446 139.409015 63.7214375 139.409015 148.130024 145.758221 148.130024 145.758221 48.4107749 99.607135 94.4865787 53.4570378 48.4106436 53.4570378 148.130024 59.8062442 148.130024 59.8062442 63.7215689"></polygon>
                <polygon id="Stroke-18" points="59.8062442 106.792484 99.6070806 146.528396 139.409015 106.792352 139.409015 148.130024 145.758221 148.130024 145.758221 91.4819524 99.607135 137.556637 53.4570378 91.4818211 53.4570378 148.130024 59.8062442 148.130024"></polygon>
                <polygon id="Stroke-20" points="56.631641 101.587302 142.583618 101.587302 142.583618 95.2380952 56.631641 95.2380952"></polygon>
                <polygon id="Stroke-22" points="95.2380952 98.9721999 95.2380952 142.042204 101.587302 142.042204 101.587302 98.9721999"></polygon>
                <path d="M9.87609805,98.9724083 L99.6074209,9.38745721 L189.338744,98.9724083 L99.6074209,188.557359 L9.87609805,98.9724083 Z M0.88962588,98.9724083 L99.6074209,197.529173 L198.325216,98.9724083 L99.6074209,0.41564398 L0.88962588,98.9724083 Z" id="Stroke-24"></path>
            </g>
        </g>
    </g>
</svg>