<?xml version="1.0" encoding="UTF-8" standalone="no"?>
<svg width="63px" height="63px" viewBox="0 0 63 63" version="1.1" xmlns="http://www.w3.org/2000/svg" xmlns:xlink="http://www.w3.org/1999/xlink">
    <!-- Generator: Sketch 41.2 (35397) - http://www.bohemiancoding.com/sketch -->
    <title>Group 3</title>
    <desc>Created with Sketch.</desc>
    <defs></defs>
    <g id="Pages" stroke="none" stroke-width="1" fill="none" fill-rule="evenodd">
        <g id="Desktop-HD" transform="translate(-688.000000, -96.000000)" fill="#FEAB83">
            <g id="logo" transform="translate(666.000000, 96.000000)">
                <g id="Group-3" transform="translate(22.000000, 0.000000)">
                    <polygon id="Stroke-16" points="31.3762304 32.5894106 43.9138398 20.0722528 43.9138398 46.6609577 45.9138398 46.6609577 45.9138398 15.2493941 31.3762475 29.7632723 16.8389669 15.2493527 16.8389669 46.6609577 18.8389669 46.6609577 18.8389669 20.0722942"></polygon>
                    <polygon id="Stroke-18" points="18.8389669 33.6396324 31.3762304 46.1564447 43.9138398 33.639591 43.9138398 46.6609577 45.9138398 46.6609577 45.9138398 28.816815 31.3762475 43.3303407 16.8389669 28.8167736 16.8389669 46.6609577 18.8389669 46.6609577"></polygon>
                    <polygon id="Stroke-20" points="17.8389669 32 44.9138398 32 44.9138398 30 17.8389669 30"></polygon>
                    <polygon id="Stroke-22" points="30 31.176243 30 44.7432943 32 44.7432943 32 31.176243"></polygon>
                    <path d="M3.11097089,31.1763086 L31.3763376,2.95704902 L59.6417043,31.1763086 L31.3763376,59.3955682 L3.11097089,31.1763086 Z M0.280232152,31.1763086 L31.3763376,62.2216894 L62.472443,31.1763086 L31.3763376,0.130927854 L0.280232152,31.1763086 Z" id="Stroke-24"></path>
                </g>
            </g>
        </g>
    </g>
</svg>