<?xml version="1.0" encoding="UTF-8"?>
<svg width="231px" height="28px" viewBox="0 0 231 28" version="1.1" xmlns="http://www.w3.org/2000/svg" xmlns:xlink="http://www.w3.org/1999/xlink">
    <!-- Generator: Sketch 47.1 (45422) - http://www.bohemiancoding.com/sketch -->
    <title>payment-logos</title>
    <desc>Created with Sketch.</desc>
    <defs>
        <linearGradient x1="-1.64477485e-15%" y1="50.0001434%" x2="100%" y2="50.0001434%" id="linearGradient-1">
            <stop stop-color="#231E5D" offset="0%"></stop>
            <stop stop-color="#074EA2" offset="100%"></stop>
        </linearGradient>
        <radialGradient cx="15.9805685%" cy="18.7726702%" fx="15.9805685%" fy="18.7726702%" r="100%" gradientTransform="translate(0.159806,0.187727),scale(0.638889,1.000000),rotate(90.000000),translate(-0.159806,-0.187727)" id="radialGradient-2">
            <stop stop-color="#93D0F2" offset="0%"></stop>
            <stop stop-color="#2E7CBF" offset="100%"></stop>
        </radialGradient>
    </defs>
    <g id="Page-1" stroke="none" stroke-width="1" fill="none" fill-rule="evenodd">
        <g id="Desktop-HD-Copy-4" transform="translate(-947.000000, -517.000000)">
            <g id="payment-logos" transform="translate(947.000000, 517.000000)">
                <g id="klarna" transform="translate(0.000000, 7.000000)" fill-rule="nonzero" fill="#000000">
                    <path d="M13.6494828,14.5642759 L16.7524138,14.5642759 L16.7524138,5.17241379e-05 L13.6494828,5.17241379e-05 L13.6494828,14.5642759 Z M33.2974138,6.14255172 L33.2974138,4.83987931 L33.2583621,4.83987931 L33.2583621,4.83936207 L30.5503448,4.83936207 L30.5503448,4.83987931 L30.3982759,4.83987931 L30.3982759,14.5642759 L33.3328448,14.5642759 L33.3328448,9.46789655 C33.3328448,7.98910345 35.0006897,7.34048276 36.1453448,7.66841379 C36.1567241,7.67177586 36.1681034,7.6697069 36.18,7.6697069 L36.18,4.84013793 C34.9784483,4.84013793 33.8738793,5.3622931 33.2974138,6.14255172 L33.2974138,6.14255172 Z M23.3156897,12.3119483 C21.7955172,12.3119483 20.5634483,11.1435 20.5634483,9.70194828 C20.5634483,8.26039655 21.7955172,7.09194828 23.3156897,7.09194828 C24.8356034,7.09194828 26.067931,8.26039655 26.067931,9.70194828 C26.067931,11.1435 24.8356034,12.3119483 23.3156897,12.3119483 L23.3156897,12.3119483 Z M26.0402586,5.51358621 C25.2031034,4.92031034 24.1812931,4.57039655 23.0772414,4.57039655 C20.2432759,4.57039655 17.9459483,6.86798276 17.9459483,9.70194828 C17.9459483,12.5359138 20.2432759,14.8335 23.0772414,14.8335 C24.1812931,14.8335 25.2031034,14.4835862 26.0402586,13.890569 L26.0402586,14.5642759 L28.575,14.5642759 L28.575,4.83987931 L26.0402586,4.83987931 L26.0402586,5.51358621 Z M43.4361207,4.57789655 C42.2728448,4.57789655 41.1721552,4.93893103 40.4363793,5.93513793 L40.4363793,4.83987931 L40.3973276,4.83987931 L40.3973276,4.83936207 L37.6893103,4.83936207 L37.6893103,4.83987931 L37.5372414,4.83987931 L37.5372414,14.5642759 L40.4718103,14.5642759 L40.4718103,9.24522414 C40.4718103,7.76643103 41.4636207,7.0422931 42.6576724,7.0422931 C43.9373276,7.0422931 44.6728448,7.80677586 44.6728448,9.22505172 L44.6728448,14.5642759 L47.5810345,14.5642759 L47.5810345,8.38013793 C47.5810345,6.11668966 45.7815517,4.57789655 43.4361207,4.57789655 L43.4361207,4.57789655 Z M62.3301724,11.1147931 C61.3207759,11.1147931 60.5025,11.933069 60.5025,12.9424655 C60.5025,13.9516034 61.3207759,14.7698793 62.3301724,14.7698793 C63.3393103,14.7698793 64.1575862,13.9516034 64.1575862,12.9424655 C64.1575862,11.933069 63.3393103,11.1147931 62.3301724,11.1147931 L62.3301724,11.1147931 Z M53.979569,12.3119483 C52.4593966,12.3119483 51.2273276,11.1435 51.2273276,9.70194828 C51.2273276,8.26039655 52.4593966,7.09194828 53.979569,7.09194828 C55.4994828,7.09194828 56.7315517,8.26039655 56.7315517,9.70194828 C56.7315517,11.1435 55.4994828,12.3119483 53.979569,12.3119483 L53.979569,12.3119483 Z M56.7041379,5.51358621 C55.8669828,4.92031034 54.8451724,4.57039655 53.7411207,4.57039655 C50.9071552,4.57039655 48.609569,6.86798276 48.609569,9.70194828 C48.609569,12.5359138 50.9071552,14.8335 53.7411207,14.8335 C54.8451724,14.8335 55.8669828,14.4835862 56.7041379,13.890569 L56.7041379,14.5642759 L59.2386207,14.5642759 L59.2386207,4.83987931 L56.7041379,4.83987931 L56.7041379,5.51358621 Z M61.0815517,5.0172931 L61.2230172,5.0172931 C61.3117241,5.0172931 61.3494828,5.06048276 61.3494828,5.12668966 C61.3494828,5.19263793 61.3249138,5.24177586 61.2230172,5.24177586 L61.0815517,5.24177586 L61.0815517,5.0172931 Z M61.0836207,5.36048276 L61.2248276,5.36048276 L61.3437931,5.63203448 L61.4852586,5.63203448 L61.3531034,5.33772414 C61.4381897,5.30022414 61.4813793,5.22651724 61.4813793,5.12668966 C61.4813793,4.98884483 61.3758621,4.89651724 61.2230172,4.89651724 L60.9532759,4.89651724 L60.9532759,5.63022414 L61.0836207,5.63022414 L61.0836207,5.36048276 Z M0,14.5642759 L3.23431034,14.5642759 L3.23431034,5.17241379e-05 L0,5.17241379e-05 L0,14.5642759 Z M11.5355172,0.00134482759 L8.39534483,0.00134482759 C8.3312069,3.28918966 6.43189655,6.1272931 3.67836207,7.53186207 L8.50344828,14.5642759 L12.4432759,14.5642759 L8.05732759,8.16755172 C10.2473276,6.01918966 11.4912931,3.12315517 11.5355172,0.00134482759 L11.5355172,0.00134482759 Z M61.1909483,4.71160345 C61.4984483,4.71160345 61.7475,4.96453448 61.7475,5.27565517 C61.7475,5.58677586 61.4984483,5.83944828 61.1909483,5.83944828 C60.8837069,5.83944828 60.6346552,5.58677586 60.6346552,5.27565517 C60.6346552,4.96453448 60.8837069,4.71160345 61.1909483,4.71160345 L61.1909483,4.71160345 Z M61.1909483,5.97341379 C61.5718966,5.97341379 61.8812069,5.66022414 61.8812069,5.27565517 C61.8812069,4.89082759 61.5718966,4.57789655 61.1909483,4.57789655 C60.81,4.57789655 60.5025,4.89082759 60.5025,5.27565517 C60.5025,5.66022414 60.81,5.97341379 61.1909483,5.97341379 L61.1909483,5.97341379 Z" id="Page-1"></path>
                </g>
                <g id="mc_vrt_pos" transform="translate(80.000000, 0.000000)" fill-rule="nonzero">
                    <path d="M6.80584972,27.290887 L6.80584972,25.5072529 C6.82687879,25.2037959 6.71631482,24.9059629 6.50236472,24.6897367 C6.28841462,24.4735106 5.99176828,24.3598012 5.6881057,24.377618 C5.28792782,24.3513831 4.9051883,24.545031 4.68927063,24.882981 C4.49241566,24.5551072 4.13196772,24.3611954 3.74989002,24.377618 C3.4172177,24.3608004 3.10051688,24.521413 2.91752745,24.7997447 L2.91752745,24.4489634 L2.29920098,24.4489634 L2.29920098,27.290887 L2.9234729,27.290887 L2.9234729,25.7272344 C2.8965871,25.530467 2.95893085,25.3319684 3.09349105,25.1859073 C3.22805126,25.0398462 3.42078254,24.9614685 3.61909019,24.9721627 C4.02932602,24.9721627 4.23741666,25.2397078 4.23741666,25.721289 L4.23741666,27.3027779 L4.86168859,27.3027779 L4.86168859,25.7272344 C4.83590603,25.5306907 4.89863098,25.3328353 5.0329417,25.187045 C5.16725243,25.0412548 5.35931152,24.9625497 5.55730587,24.9721627 C5.9794326,24.9721627 6.18157779,25.2397078 6.18157779,25.721289 L6.18157779,27.3027779 L6.80584972,27.290887 Z M16.0421015,24.4489634 L15.02543,24.4489634 L15.02543,23.5868736 L14.4011581,23.5868736 L14.4011581,24.4489634 L13.8363407,24.4489634 L13.8363407,25.0137808 L14.413049,25.0137808 L14.413049,26.3217791 C14.413049,26.9817237 14.6687032,27.3741232 15.3999932,27.3741232 C15.6732039,27.375041 15.9411203,27.2987878 16.1729013,27.1541417 L15.9945379,26.6249969 C15.8287203,26.7239023 15.6405254,26.7791334 15.4475568,26.785524 C15.1502844,26.785524 15.0373209,26.5952697 15.0373209,26.3098882 L15.0373209,25.0137808 L16.0480469,25.0137808 L16.0421015,24.4489634 Z M21.3157128,24.377618 C21.0086059,24.3685861 20.7211631,24.5282766 20.5665865,24.7937993 L20.5665865,24.4489634 L19.9542055,24.4489634 L19.9542055,27.290887 L20.572532,27.290887 L20.572532,25.6975072 C20.572532,25.2278169 20.7746772,24.9662172 21.1670767,24.9662172 C21.2993284,24.9644082 21.4306428,24.9886509 21.5535307,25.0375626 L21.743785,24.4430179 C21.6025723,24.3925006 21.4537973,24.3663645 21.303822,24.3657271 L21.3157128,24.377618 Z M13.3428686,24.6748903 C12.9928675,24.4667929 12.5904574,24.3636108 12.1835064,24.377618 C11.4641074,24.377618 10.994417,24.7224539 10.994417,25.2872714 C10.994417,25.7510162 11.339253,26.0363977 11.9754158,26.1255794 L12.2726881,26.1671975 C12.6115786,26.2147611 12.7721057,26.3039428 12.7721057,26.4644698 C12.7721057,26.6844514 12.5461787,26.8093058 12.124052,26.8093058 C11.7845082,26.8191342 11.4515337,26.7144253 11.1787259,26.5120334 L10.8814536,26.9936146 C11.2416328,27.2451042 11.6730368,27.374317 12.1121611,27.3622323 C12.9326327,27.3622323 13.4082685,26.9757783 13.4082685,26.4347426 C13.4082685,25.8937069 13.0337053,25.6737254 12.4153789,25.5845437 L12.1181065,25.5429256 C11.8505614,25.5072529 11.6365253,25.4537439 11.6365253,25.2634896 C11.6365253,25.0732353 11.8386705,24.9305446 12.177561,24.9305446 C12.4907896,24.9341832 12.7978482,25.0181125 13.069378,25.1743079 L13.3428686,24.6748903 Z M29.9039109,24.377618 C29.596804,24.3685861 29.3093611,24.5282766 29.1547846,24.7937993 L29.1547846,24.4489634 L28.5424035,24.4489634 L28.5424035,27.290887 L29.16073,27.290887 L29.16073,25.6975072 C29.16073,25.2278169 29.3628752,24.9662172 29.7552747,24.9662172 C29.8875265,24.9644082 30.0188408,24.9886509 30.1417287,25.0375626 L30.331983,24.4430179 C30.1907704,24.3925006 30.0419954,24.3663645 29.89202,24.3657271 L29.9039109,24.377618 Z M21.937012,25.8639797 C21.9221418,26.2678048 22.0781287,26.6592018 22.3666847,26.9420999 C22.6552407,27.2249979 23.0496495,27.3732045 23.453101,27.3503414 C23.8243581,27.3692301 24.1892169,27.2483176 24.4757179,27.011451 L24.1784455,26.5120334 C23.9646981,26.6750312 23.7040532,26.764693 23.4352647,26.7676876 C22.9613236,26.7293405 22.5962397,26.3335242 22.5962397,25.8580343 C22.5962397,25.3825444 22.9613236,24.986728 23.4352647,24.9483809 C23.7040532,24.9513755 23.9646981,25.0410374 24.1784455,25.2040351 L24.4757179,24.7046176 C24.1892169,24.467751 23.8243581,24.3468385 23.453101,24.3657271 C23.0496495,24.342864 22.6552407,24.4910706 22.3666847,24.7739687 C22.0781287,25.0568667 21.9221418,25.4482637 21.937012,25.8520888 L21.937012,25.8639797 Z M27.7278773,25.8639797 L27.7278773,24.4489634 L27.1095508,24.4489634 L27.1095508,24.7937993 C26.8965265,24.5196993 26.5646436,24.3648206 26.2177338,24.377618 C25.3968389,24.377618 24.7313721,25.0430848 24.7313721,25.8639797 C24.7313721,26.6848746 25.3968389,27.3503414 26.2177338,27.3503414 C26.5646436,27.3631388 26.8965265,27.2082601 27.1095508,26.9341602 L27.1095508,27.2789961 L27.7278773,27.2789961 L27.7278773,25.8639797 Z M25.4269894,25.8639797 C25.4544856,25.3974609 25.849842,25.0384866 26.3168416,25.056015 C26.7838412,25.0735434 27.1511756,25.4611446 27.143623,25.928412 C27.1360704,26.3956794 26.7564013,26.7712064 26.2890792,26.7736331 C26.0511243,26.7766439 25.8227255,26.6801344 25.6590289,26.5074062 C25.4953323,26.3346781 25.4112159,26.1014303 25.4269894,25.8639797 L25.4269894,25.8639797 Z M17.9654535,24.377618 C17.1445586,24.3891105 16.4884083,25.0638939 16.4999009,25.8847888 C16.5113934,26.7056837 17.1861767,27.361834 18.0070717,27.3503414 C18.4347691,27.3722947 18.8553696,27.2345665 19.1872429,26.9638874 L18.8899705,26.506088 C18.655233,26.6943442 18.3644233,26.798952 18.0635534,26.8033603 C17.6385629,26.83991 17.2616851,26.5315555 17.2133545,26.107743 L19.3239881,26.107743 C19.3239881,26.0304522 19.3239881,25.9531614 19.3239881,25.8699252 C19.3239881,24.9781081 18.7710616,24.3835634 17.9743717,24.3835634 L17.9654535,24.377618 Z M17.9654535,24.9305446 C18.1523198,24.9265606 18.333111,24.9969938 18.4680337,25.1263412 C18.6029564,25.2556885 18.6809518,25.4333483 18.6848526,25.6202164 L17.1984909,25.6202164 C17.2208839,25.2233053 17.5562517,24.9169852 17.9535626,24.9305446 L17.9654535,24.9305446 Z M33.4563154,25.8699252 L33.4563154,23.3074376 L32.8617707,23.3074376 L32.8617707,24.7937993 C32.6487463,24.5196993 32.3168634,24.3648206 31.9699537,24.377618 C31.1490588,24.377618 30.4835919,25.0430848 30.4835919,25.8639797 C30.4835919,26.6848746 31.1490588,27.3503414 31.9699537,27.3503414 C32.3168634,27.3631388 32.6487463,27.2082601 32.8617707,26.9341602 L32.8617707,27.2789961 L33.4563154,27.2789961 L33.4563154,25.8699252 Z M34.4878504,26.8776784 C34.5264997,26.8772049 34.5648703,26.8842732 34.6008139,26.8984875 C34.6349535,26.9124189 34.6662033,26.93258 34.6929683,26.9579419 C34.7190894,26.9835732 34.7402533,27.0138072 34.7553955,27.0471236 C34.7858247,27.117294 34.7858247,27.1969349 34.7553955,27.2671052 C34.7402533,27.3004216 34.7190894,27.3306557 34.6929683,27.3562869 C34.6662033,27.3816488 34.6349535,27.40181 34.6008139,27.4157414 C34.5652252,27.4314448 34.5267498,27.4395449 34.4878504,27.4395231 C34.3728208,27.4386561 34.2686159,27.3715018 34.2203053,27.2671052 C34.1902285,27.1968622 34.1902285,27.1173667 34.2203053,27.0471236 C34.2354476,27.0138072 34.2566114,26.9835732 34.2827325,26.9579419 C34.3094975,26.93258 34.3407474,26.9124189 34.3748869,26.8984875 C34.4136066,26.8830853 34.4551319,26.8759956 34.4967686,26.8776784 L34.4878504,26.8776784 Z M34.4878504,27.3800687 C34.517521,27.3802489 34.5468962,27.3741713 34.5740594,27.3622323 C34.5996356,27.3508134 34.6228312,27.3346773 34.642432,27.3146688 C34.7195139,27.2305683 34.7195139,27.1014969 34.642432,27.0173964 C34.6228779,26.9973326 34.5996711,26.9811888 34.5740594,26.9698328 C34.5468694,26.957978 34.5175122,26.9519041 34.4878504,26.9519965 C34.4582142,26.9521531 34.4289067,26.9582167 34.4016414,26.9698328 C34.3749329,26.9807844 34.3506777,26.9969545 34.3302961,27.0173964 C34.2532143,27.1014969 34.2532143,27.2305683 34.3302961,27.3146688 C34.3507278,27.3350496 34.37497,27.3512111 34.4016414,27.3622323 C34.4316332,27.375166 34.4641286,27.3812589 34.4967686,27.3800687 L34.4878504,27.3800687 Z M34.5056868,27.0263146 C34.5334375,27.0249688 34.5607835,27.0333829 34.5829776,27.0500964 C34.6014389,27.065375 34.6114002,27.088618 34.6097321,27.1125236 C34.610595,27.1324869 34.6030466,27.1518973 34.588923,27.1660326 C34.5716926,27.1816828 34.5497118,27.1911031 34.5264958,27.1927871 L34.6127048,27.290887 L34.5443322,27.290887 L34.4640686,27.1927871 L34.4373141,27.1927871 L34.4373141,27.290887 L34.3808324,27.290887 L34.3808324,27.0292873 L34.5056868,27.0263146 Z M34.4402868,27.0768509 L34.4402868,27.1481962 L34.5056868,27.1481962 C34.5173245,27.151666 34.5297217,27.151666 34.5413594,27.1481962 C34.5455994,27.139782 34.5455994,27.129856 34.5413594,27.1214417 C34.5455994,27.1130275 34.5455994,27.1031014 34.5413594,27.0946872 C34.5297217,27.0912175 34.5173245,27.0912175 34.5056868,27.0946872 L34.4402868,27.0768509 Z M31.1702911,25.8699252 C31.1977873,25.4034063 31.5931437,25.0444321 32.0601433,25.0619605 C32.5271429,25.0794889 32.8944773,25.46709 32.8869247,25.9343574 C32.8793721,26.4016248 32.499703,26.7771519 32.0323809,26.7795785 C31.794426,26.7825894 31.5660272,26.6860798 31.4023306,26.5133517 C31.238634,26.3406235 31.1545176,26.1073758 31.1702911,25.8699252 L31.1702911,25.8699252 Z M10.2928543,25.8699252 L10.2928543,24.4489634 L9.67452784,24.4489634 L9.67452784,24.7937993 C9.46150347,24.5196993 9.12962058,24.3648206 8.78271081,24.377618 C7.9618159,24.377618 7.29634909,25.0430848 7.29634909,25.8639797 C7.29634909,26.6848746 7.9618159,27.3503414 8.78271081,27.3503414 C9.12962058,27.3631388 9.46150347,27.2082601 9.67452784,26.9341602 L9.67452784,27.2789961 L10.2928543,27.2789961 L10.2928543,25.8699252 Z M7.99196637,25.8699252 C8.01946258,25.4034063 8.41481901,25.0444321 8.88181859,25.0619605 C9.34881817,25.0794889 9.71615258,25.46709 9.70859999,25.9343574 C9.70104739,26.4016248 9.32137829,26.7771519 8.85405617,26.7795785 C8.61507582,26.7842702 8.38508702,26.6884964 8.22007197,26.5155696 C8.05505691,26.3426429 7.97015083,26.1084241 7.98602092,25.8699252 L7.99196637,25.8699252 Z" id="Shape" fill="#231F20"></path>
                    <g id="_Group_" transform="translate(0.459085, 0.459085)">
                        <rect id="Rectangle-path" fill="#FF5F00" x="12.6786655" y="2.3335879" width="9.36407885" height="16.8285874"></rect>
                        <path d="M13.2732102,10.749368 C13.2697091,7.46495217 14.7770645,4.36144436 17.3607049,2.3335879 C12.9729028,-1.1147559 6.67184295,-0.612474803 2.88574093,3.48744153 C-0.900361095,7.58735787 -0.900361095,13.9084054 2.88574093,18.0083217 C6.67184295,22.108238 12.9729028,22.6105191 17.3607049,19.1621753 C14.7778865,17.1349626 13.2706231,14.0327406 13.2732102,10.749368 L13.2732102,10.749368 Z" id="_Path_" fill="#EB001B"></path>
                        <path d="M34.676819,10.749368 C34.6767235,14.8467858 32.3371135,18.5844712 28.6516304,20.3750149 C24.9661472,22.1655587 20.5818261,21.6946072 17.3607049,19.1621753 C19.9423964,17.1332416 21.4497732,14.031432 21.4497732,10.7478816 C21.4497732,7.46433124 19.9423964,4.36252165 17.3607049,2.3335879 C20.5818261,-0.198843933 24.9661472,-0.669795444 28.6516304,1.12074828 C32.3371135,2.91129201 34.6767235,6.64897745 34.676819,10.7463952 L34.676819,10.749368 Z" id="Shape" fill="#F79E1B"></path>
                        <path d="M33.6542021,17.3785413 L33.6542021,17.0337053 L33.7939201,17.0337053 L33.7939201,16.96236 L33.440166,16.96236 L33.440166,17.0337053 L33.5917749,17.0337053 L33.5917749,17.3785413 L33.6542021,17.3785413 Z M34.3409012,17.3785413 L34.3409012,16.96236 L34.2338832,16.96236 L34.1090288,17.2596323 L33.9841744,16.96236 L33.8890473,16.96236 L33.8890473,17.3785413 L33.9663381,17.3785413 L33.9663381,17.0664053 L34.0822743,17.3369231 L34.1625378,17.3369231 L34.278474,17.0664053 L34.278474,17.381514 L34.3409012,17.3785413 Z" id="Shape" fill="#F79E1B"></path>
                    </g>
                </g>
                <g id="visa" transform="translate(131.000000, 7.000000)" fill-rule="nonzero" fill="url(#linearGradient-1)">
                    <path d="M22.7311637,0.316285714 L19.6635438,14.7739286 L15.9534091,14.7739286 L19.0220918,0.316285714 L22.7311637,0.316285714 L22.7311637,0.316285714 Z M38.3385543,9.65142859 L40.291391,4.22292857 L41.4155261,9.65142859 L38.3385543,9.65142859 L38.3385543,9.65142859 Z M42.478024,14.7739286 L45.9090909,14.7739286 L42.9141604,0.316285714 L39.7479209,0.316285714 C39.0356923,0.316285714 38.435261,0.7335 38.1687332,1.37657143 L32.6024685,14.7739286 L36.4968771,14.7739286 L37.2707429,12.6141429 L42.0297727,12.6141429 L42.478024,14.7739286 Z M32.7952441,10.0534286 C32.8118224,6.23807141 27.5618203,6.02721427 27.598165,4.32257143 C27.6094297,3.80421429 28.0993392,3.25307143 29.171614,3.11185714 C29.7023316,3.042 31.1682344,2.98778571 32.8288258,3.75835714 L33.4806923,0.693 C32.587378,0.366 31.4394381,0.0518571427 30.00988,0.0518571427 C26.343529,0.0518571427 23.7624179,2.01728571 23.7418014,4.83085714 C23.717359,6.91307141 25.5836911,8.07342859 26.9898695,8.76578573 C28.4345181,9.47421427 28.919114,9.92892859 28.9138005,10.5623571 C28.9029609,11.5328571 27.7609722,11.9605714 26.6933733,11.9775 C24.8283165,12.0066429 23.7458396,11.4692143 22.8833439,11.064 L22.2117109,14.2322143 C23.0776073,14.6331429 24.6776241,14.9828571 26.3369402,15 C30.2343245,15 32.7831292,13.0598571 32.7952441,10.0534286 L32.7952441,10.0534286 Z M17.4301515,0.316285714 L11.4198864,14.7739286 L7.49869741,14.7739286 L4.54074916,3.23571429 C4.3611511,2.52535714 4.20557029,2.26457143 3.65954966,1.96585714 C2.76772306,1.4775 1.29523148,1.01978571 0,0.735642859 L0.0873547982,0.316285714 L6.39985482,0.316285714 C7.20411405,0.316285714 7.92781986,0.855642859 8.11060605,1.79014286 L9.67279041,10.1567143 L13.5336174,0.316285714 L17.4301515,0.316285714 L17.4301515,0.316285714 Z" id="Shape"></path>
                </g>
                <g id="American-Express" transform="translate(193.000000, 2.000000)">
                    <rect id="Card" fill="url(#radialGradient-2)" x="0" y="0" width="37.5652174" height="24"></rect>
                    <path d="M37.5652174,14.7675132 L35.6655373,14.7675132 C35.4751086,14.7675132 35.3491799,14.773456 35.2447513,14.843284 C35.1326441,14.913112 35.089644,15.0141397 35.089644,15.1478529 C35.089644,15.306823 35.1833227,15.4152793 35.3184656,15.4628217 C35.4290371,15.4984786 35.5472872,15.5103642 35.7192874,15.5103642 L36.2844307,15.5252212 C36.8557168,15.5385925 37.2365743,15.6336775 37.4715387,15.865447 C37.5114673,15.8966467 37.5375745,15.9337893 37.5652174,15.9694461 L37.5652174,14.7675132 Z M37.5652174,17.5517188 C37.3133601,17.9112587 36.8203954,18.0925143 36.1508234,18.0925143 L34.1359647,18.0925143 L34.1359647,17.1862361 L36.1431448,17.1862361 C36.3412521,17.1862361 36.4794665,17.1624649 36.5654666,17.0822369 C36.6376452,17.0153804 36.6898596,16.9217811 36.6898596,16.8058964 C36.6898596,16.6825831 36.6376452,16.5860125 36.5608595,16.5265844 C36.4856094,16.4626992 36.3765736,16.4329852 36.1922877,16.4329852 C35.2125013,16.4017854 33.9916074,16.4626992 33.9916074,15.1255674 C33.9916074,14.5134581 34.3924292,13.8686634 35.4889301,13.8686634 L37.5652174,13.8686634 L37.5652174,13.0277561 L35.634823,13.0277561 C35.0527869,13.0277561 34.6289294,13.162955 34.3310006,13.3724389 L34.3310006,13.0277561 L31.473034,13.0277561 C31.0169265,13.0277561 30.4809618,13.137698 30.2260331,13.3724389 L30.2260331,13.0277561 L25.1274576,13.0277561 L25.1274576,13.3724389 C24.720493,13.0886699 24.0370997,13.0277561 23.7207423,13.0277561 L20.3544539,13.0277561 L20.3544539,13.3724389 C20.0334894,13.0723271 19.3193817,13.0277561 18.8832385,13.0277561 L15.1191998,13.0277561 L14.2576634,13.9295772 L13.4514128,13.0277561 L7.82608696,13.0277561 L7.82608696,18.9215361 L13.3454484,18.9215361 L14.233092,18.0048579 L15.0700569,18.9215361 L18.4716667,18.9245075 L18.4716667,17.5383475 L18.804917,17.5383475 C19.2548816,17.545776 19.7877749,17.5264619 20.2592396,17.3303492 L20.2592396,18.9215361 L23.0649917,18.9215361 L23.0649917,17.3853202 L23.2001347,17.3853202 C23.3721348,17.3853202 23.3890277,17.3927487 23.3890277,17.5591473 L23.3890277,18.9215361 L31.9137844,18.9215361 C32.4543562,18.9215361 33.0194995,18.7878229 33.3327855,18.5441678 L33.3327855,18.9215361 L36.0356448,18.9215361 C36.5977166,18.9215361 37.1490385,18.8442796 37.5652174,18.6496526 L37.5652174,17.5517188 L37.5652174,17.5517188 Z M33.4049641,15.865447 C33.6076786,16.0675024 33.7151787,16.3245289 33.7151787,16.7598396 C33.7151787,17.6676035 33.1300711,18.0925143 32.078106,18.0925143 L30.0463544,18.0925143 L30.0463544,17.1862361 L32.0704274,17.1862361 C32.2685347,17.1862361 32.4067491,17.1624649 32.4942848,17.0822369 C32.5664635,17.0153804 32.6186778,16.9217811 32.6186778,16.8058964 C32.6186778,16.6825831 32.563392,16.5860125 32.4927491,16.5265844 C32.4128919,16.4626992 32.3023204,16.4329852 32.1180346,16.4329852 C31.1443909,16.4017854 29.9234971,16.4626992 29.9234971,15.1255674 C29.9234971,14.5134581 30.3197117,13.8686634 31.4131411,13.8686634 L33.5063214,13.8686634 L33.5063214,14.7675132 L31.5928199,14.7675132 C31.4023911,14.7675132 31.2779982,14.7749417 31.1720338,14.843284 C31.0599266,14.913112 31.0169265,15.0141397 31.0169265,15.1478529 C31.0169265,15.306823 31.1136766,15.4152793 31.2457482,15.4628217 C31.354784,15.4984786 31.473034,15.5103642 31.651177,15.5103642 L32.2147846,15.5252212 C32.7799279,15.5385925 33.1684639,15.6336775 33.4049641,15.865447 L33.4049641,15.865447 Z M23.9910282,15.6039634 C23.8497424,15.6841913 23.6762065,15.6901341 23.4719564,15.6901341 L22.2049911,15.6901341 L22.2049911,14.7422562 L23.4919207,14.7422562 C23.6762065,14.7422562 23.8635638,14.7452276 23.9910282,14.818027 C24.1230997,14.8863693 24.2060284,15.0171111 24.2060284,15.1983668 C24.2060284,15.3781367 24.1230997,15.5252212 23.9910282,15.6039634 L23.9910282,15.6039634 Z M24.6206715,16.1299019 C24.8510289,16.2116155 25.0414576,16.3616715 25.1305291,16.4849847 C25.2779578,16.6900116 25.2994578,16.8831529 25.3056006,17.2545784 L25.3056006,18.0925143 L24.2536355,18.0925143 L24.2536355,17.5636044 C24.2536355,17.3095494 24.2797427,16.932181 24.0877783,16.7375541 C23.932671,16.5860125 23.7023137,16.5503556 23.3214562,16.5503556 L22.2049911,16.5503556 L22.2049911,18.0925143 L21.1591688,18.0925143 L21.1591688,13.8686634 L23.5687064,13.8686634 C24.0954568,13.8686634 24.4824571,13.890949 24.823386,14.0677475 C25.1520291,14.2594031 25.357815,14.523858 25.357815,15.0052255 C25.357815,15.6797342 24.8940289,16.0244171 24.6206715,16.1299019 L24.6206715,16.1299019 Z M25.9367797,13.8686634 L29.4197824,13.8686634 L29.4197824,14.7422562 L26.9764591,14.7422562 L26.9764591,15.5103642 L29.3598895,15.5103642 L29.3598895,16.3705857 L26.9764591,16.3705857 L26.9764591,17.211493 L29.4197824,17.2159501 L29.4197824,18.0925143 L25.9367797,18.0925143 L25.9367797,13.8686634 L25.9367797,13.8686634 Z M18.8985956,15.8179045 L17.5502374,15.8179045 L17.5502374,14.7422562 L18.9093456,14.7422562 C19.2871316,14.7422562 19.5482033,14.8908264 19.5482033,15.2592805 C19.5482033,15.6247632 19.2994174,15.8179045 18.8985956,15.8179045 L18.8985956,15.8179045 Z M16.5090223,17.7077175 L14.9057354,15.9872745 L16.5090223,14.3218026 L16.5090223,17.7077175 L16.5090223,17.7077175 Z M12.3718048,17.211493 L9.80715994,17.211493 L9.80715994,16.3705857 L12.0984474,16.3705857 L12.0984474,15.5103642 L9.80715994,15.5103642 L9.80715994,14.7422562 L12.4224834,14.7422562 L13.5650557,15.9724175 L12.3718048,17.211493 L12.3718048,17.211493 Z M20.6662042,15.2592805 C20.6662042,16.4329852 19.7616677,16.6751546 18.8525242,16.6751546 L17.5502374,16.6751546 L17.5502374,18.0925143 L15.5215573,18.0925143 L14.2361634,16.6944687 L12.9016266,18.0925143 L8.76748055,18.0925143 L8.76748055,13.8686634 L12.9661267,13.8686634 L14.2499848,15.251852 L15.5753073,13.8686634 L18.9093456,13.8686634 C19.738632,13.8686634 20.6662042,14.090033 20.6662042,15.2592805 L20.6662042,15.2592805 Z" id="Express" fill="#FFFFFF"></path>
                    <path d="M3.36185801,8.97796088 L2.6428925,7.29466047 L1.93009838,8.97796088 L3.36185801,8.97796088 Z M19.1667563,8.30790926 C19.0217289,8.39110858 18.852016,8.39407998 18.6483606,8.39407998 L17.3755139,8.39407998 L17.3755139,7.45660199 L18.6668747,7.45660199 C18.8489304,7.45660199 19.0371574,7.46551621 19.1621278,7.5338585 C19.2994409,7.59477228 19.3842974,7.72551406 19.3842974,7.90676971 C19.3842974,8.09099676 19.3040695,8.23956697 19.1667563,8.30790926 L19.1667563,8.30790926 Z M28.2525671,8.97796088 L27.5243446,7.29466047 L26.8053791,8.97796088 L28.2525671,8.97796088 L28.2525671,8.97796088 Z M11.3167639,10.8009173 L10.2429441,10.8009173 L10.2383156,7.49374454 L8.7201567,10.8009173 L7.79907858,10.8009173 L6.27474828,7.49077314 L6.27474828,10.8009173 L4.14099444,10.8009173 L3.73985489,9.85898219 L1.55827287,9.85898219 L1.1494191,10.8009173 L0.0123427554,10.8009173 L1.88998442,6.57706639 L3.44671445,6.57706639 L5.22869976,10.5750906 L5.22869976,6.57706639 L6.94125707,6.57706639 L8.31130293,9.44298562 L9.57180682,6.57706639 L11.3167639,6.57706639 L11.3167639,10.8009173 L11.3167639,10.8009173 Z M15.5997,10.8009173 L12.098986,10.8009173 L12.098986,6.57706639 L15.5997,6.57706639 L15.5997,7.45660199 L13.1481202,7.45660199 L13.1481202,8.21728144 L15.5426148,8.21728144 L15.5426148,9.08344573 L13.1481202,9.08344573 L13.1481202,9.92732449 L15.5997,9.92732449 L15.5997,10.8009173 L15.5997,10.8009173 Z M20.538345,7.71511415 C20.538345,8.38813717 20.0708631,8.73579145 19.7993225,8.84127629 C20.0292063,8.92447561 20.2251476,9.07304581 20.3161754,9.19635908 C20.4658313,9.40584307 20.4920597,9.59304153 20.4920597,9.97040985 L20.4920597,10.8009173 L19.4336684,10.8009173 L19.4305827,10.2675503 C19.4305827,10.0134952 19.4568111,9.6480125 19.2654984,9.44595703 C19.1112139,9.29590112 18.8797872,9.26470138 18.5017904,9.26470138 L17.3755139,9.26470138 L17.3755139,10.8009173 L16.3279226,10.8009173 L16.3279226,6.57706639 L18.7378456,6.57706639 C19.2747554,6.57706639 19.6697236,6.5904377 20.0076065,6.78060757 C20.3393181,6.96780602 20.538345,7.2441466 20.538345,7.71511415 L20.538345,7.71511415 Z M21.1477686,6.57706639 L22.2169597,6.57706639 L22.2169597,10.7994316 L21.1477686,10.7994316 L21.1477686,6.57706639 Z M34.6260575,10.8009173 L33.1402983,10.8009173 L31.1531147,7.63042913 L31.1531147,10.8009173 L29.0162751,10.8009173 L28.6074214,9.85898219 L26.4335536,9.85898219 L26.0354997,10.8009173 L24.8089384,10.8009173 C24.2982569,10.8009173 23.6564336,10.692461 23.2876938,10.3344068 C22.9220396,9.97486695 22.7307269,9.48904238 22.7307269,8.72242013 C22.7307269,8.09545387 22.8448974,7.52197288 23.2938652,7.06883376 C23.6332909,6.7330651 24.1640294,6.57706639 24.8845378,6.57706639 L25.8997294,6.57706639 L25.8997294,7.48185893 L24.9092233,7.48185893 C24.5265978,7.48185893 24.3090568,7.5368299 24.0992299,7.73294257 C23.92026,7.90974112 23.7999181,8.24699548 23.7999181,8.68973469 C23.7999181,9.14138811 23.8924888,9.46824256 24.0868872,9.68069795 C24.2488859,9.84858228 24.5420263,9.89909615 24.8181954,9.89909615 L25.288763,9.89909615 L26.766808,6.57706639 L28.3374236,6.57706639 L30.1116947,10.5721192 L30.1116947,6.57706639 L31.7085387,6.57706639 L33.5506949,9.51875643 L33.5506949,6.57706639 L34.6260575,6.57706639 L34.6260575,10.8009173 L34.6260575,10.8009173 Z M1.79124238,11.629939 L2.19238193,10.692461 L3.09803161,10.692461 L3.500714,11.629939 L7.02457067,11.629939 L7.02457067,10.9123449 L7.34085378,11.6329104 L9.16912443,11.6329104 L9.48540753,10.901945 L9.48540753,11.629939 L18.2441353,11.629939 L18.237964,10.0907517 L18.4076769,10.0907517 C18.524933,10.0937231 18.5619613,10.104123 18.5619613,10.2928072 L18.5619613,11.629939 L23.0886668,11.629939 L23.0886668,11.2718848 C23.4574067,11.460569 24.0251734,11.629939 24.7719101,11.629939 L26.6788658,11.629939 L27.0830911,10.692461 L27.9871979,10.692461 L28.3883374,11.629939 L32.0603072,11.629939 L32.0603072,10.7385178 L32.6157312,11.629939 L35.5579355,11.629939 L35.5579355,5.73913043 L32.6481309,5.73913043 L32.6481309,6.43443899 L32.2377343,5.73913043 L29.2507875,5.73913043 L29.2507875,6.43443899 L28.8774191,5.73913043 L24.8382524,5.73913043 C24.1640294,5.73913043 23.5700343,5.83124396 23.0886668,6.08381331 L23.0886668,5.73913043 L20.3053755,5.73913043 L20.3053755,6.08381331 C19.9998923,5.82381545 19.5833243,5.73913043 19.1220138,5.73913043 L8.94541198,5.73913043 L8.2619319,7.26048932 L7.55993769,5.73913043 L4.35544982,5.73913043 L4.35544982,6.43443899 L4.00213844,5.73913043 L1.26976096,5.73913043 L0,8.54116448 L0,11.629939 L1.79124238,11.629939 Z" id="American" fill="#FFFFFF"></path>
                </g>
            </g>
        </g>
    </g>
</svg>