<svg width="108" height="14" viewBox="0 0 108 14" xmlns="http://www.w3.org/2000/svg"><title>Group</title><path d="M6.196 6.95L0 .179v12.904h2.06V5.177l4.136 4.644 4.137-4.644v7.906h2.06V.179zM16.28.498v2.02h3.25v10.565h2.059V2.518h3.267V.498zm10.528 11.184c0-.833.693-1.524 1.545-1.524s1.527.691 1.527 1.524a1.53 1.53 0 0 1-1.527 1.542c-.852 0-1.545-.69-1.545-1.542M34.407.179l6.196 6.77L46.8.18v12.904h-2.06V5.178L40.603 9.82l-4.136-4.643v7.905h-2.06zM56.67 4.521l-1.793 3.882h3.586L56.67 4.521zm-3.959 8.562H50.51L56.67.196l6.16 12.887h-2.218l-1.296-2.8h-5.31l-1.295 2.8zM68.6 4.894v8.189h-2.059V.196l8.61 8.42V.498h2.06v12.815zM92.213 6.79c0-2.517-1.864-4.484-4.35-4.484-2.485 0-4.35 1.967-4.35 4.484s1.865 4.485 4.35 4.485c2.486 0 4.35-1.968 4.35-4.485m-10.795 0c0-3.633 2.877-6.434 6.445-6.434 3.587 0 6.445 2.8 6.445 6.434 0 3.634-2.858 6.434-6.445 6.434-3.568 0-6.445-2.8-6.445-6.434m20.95-.85c1.367 0 2.148-.692 2.148-1.755 0-1.082-.78-1.79-2.148-1.79h-1.793v3.544h1.793zm-1.793 7.143h-2.06V.498h4.084c2.343 0 4.012 1.506 4.012 3.616 0 1.63-.994 2.925-2.592 3.42l4.013 5.549h-2.468l-3.8-5.354h-1.189v5.354z" fill="#FEFEFE" fill-rule="evenodd"/></svg>