<svg width="63" height="63" viewBox="0 0 63 63" xmlns="http://www.w3.org/2000/svg"><title>Group 3</title><g fill="#FEAB83" fill-rule="evenodd"><path d="M31.376 32.59l12.538-12.518v26.589h2V15.249L31.376 29.763 16.84 15.25v31.412h2v-26.59z"/><path d="M18.839 33.64l12.537 12.516L43.914 33.64v13.02h2V28.817L31.376 43.33 16.84 28.817V46.66h2z"/><path d="M17.839 32h27.075v-2H17.839z"/><path d="M30 31.176v13.567h2V31.176z"/><path d="M3.111 31.176L31.376 2.957l28.266 28.22-28.266 28.219-28.265-28.22zm-2.83 0l31.095 31.046 31.096-31.046L31.376.131.28 31.176z"/></g></svg>