<svg width="178" height="28" viewBox="0 0 178 28" xmlns="http://www.w3.org/2000/svg"><title>payment-logos</title><defs><linearGradient x1="0%" y1="50%" y2="50%" id="a"><stop stop-color="#231E5D" offset="0%"/><stop stop-color="#074EA2" offset="100%"/></linearGradient></defs><g fill="none"><path d="M13.65 18.564h3.102V4H13.65v14.564zm19.647-8.421V8.84h-2.899v9.724h2.935v-5.096c0-1.479 1.668-2.128 2.812-1.8.012.004.023.002.035.002V8.84c-1.202 0-2.306.522-2.883 1.303zm-9.981 6.169c-1.52 0-2.753-1.169-2.753-2.61 0-1.442 1.233-2.61 2.753-2.61s2.752 1.168 2.752 2.61c0 1.441-1.232 2.61-2.752 2.61zm2.724-6.798a5.131 5.131 0 1 0 0 8.377v.673h2.535V8.84H26.04v.674zm17.396-.936c-1.163 0-2.264.36-3 1.357V8.84h-2.899v9.724h2.935v-5.319c0-1.479.992-2.203 2.186-2.203 1.28 0 2.015.765 2.015 2.183v5.34h2.908V12.38c0-2.263-1.8-3.802-4.145-3.802zm18.894 6.537a1.828 1.828 0 1 0 0 3.655 1.828 1.828 0 0 0 0-3.655zm-8.35 1.197c-1.52 0-2.753-1.169-2.753-2.61 0-1.442 1.232-2.61 2.753-2.61 1.52 0 2.752 1.168 2.752 2.61 0 1.441-1.233 2.61-2.752 2.61zm2.724-6.798a5.132 5.132 0 1 0 0 8.377v.673h2.535V8.84h-2.535v.674zm4.378-.497h.141c.089 0 .126.043.126.11 0 .066-.024.115-.126.115h-.141v-.225zm.002.343h.14l.12.272h.141l-.132-.294c.085-.038.128-.111.128-.211 0-.138-.105-.23-.258-.23h-.27v.733h.13v-.27zM0 18.564h3.234V4H0v14.564zM11.536 4.001h-3.14a8.64 8.64 0 0 1-4.718 7.53l4.825 7.033h3.94l-4.386-6.396c2.19-2.149 3.434-5.045 3.479-8.167zm49.655 4.71a.56.56 0 0 1 .556.565.56.56 0 0 1-.556.563.56.56 0 0 1-.556-.563.56.56 0 0 1 .556-.564zm0 1.262c.38 0 .69-.313.69-.697a.695.695 0 0 0-.69-.698.693.693 0 0 0-.689.698c0 .384.308.697.689.697z" fill="#000"/><path d="M86.806 27.29v-1.783a1.058 1.058 0 0 0-1.118-1.13 1.1 1.1 0 0 0-.999.506 1.043 1.043 0 0 0-.94-.505.94.94 0 0 0-.831.422v-.351h-.619v2.842h.624v-1.564a.666.666 0 0 1 .696-.755c.41 0 .618.268.618.75v1.58h.625v-1.575a.669.669 0 0 1 .695-.755c.422 0 .625.268.625.75v1.58l.624-.011zm9.236-2.841h-1.017v-.862h-.624v.862h-.565v.565h.577v1.308c0 .66.256 1.052.987 1.052.273.001.541-.075.773-.22l-.178-.529a1.142 1.142 0 0 1-.547.16c-.298 0-.41-.19-.41-.475v-1.296h1.01l-.006-.565zm5.274-.071a.838.838 0 0 0-.75.416v-.345h-.612v2.842h.619v-1.593c0-.47.202-.732.594-.732.132-.002.264.023.387.072l.19-.595a1.323 1.323 0 0 0-.44-.077l.012.012zm-7.973.297a2.125 2.125 0 0 0-1.16-.297c-.719 0-1.189.344-1.189.91 0 .463.345.748.981.838l.298.041c.339.048.5.137.5.297 0 .22-.227.345-.649.345-.34.01-.672-.095-.945-.297l-.298.482c.36.251.792.38 1.231.368.82 0 1.296-.386 1.296-.927s-.374-.761-.993-.85l-.297-.042c-.267-.036-.481-.09-.481-.28 0-.19.202-.332.54-.332.314.003.62.087.892.243l.274-.5zm16.56-.297a.838.838 0 0 0-.748.416v-.345h-.613v2.842h.619v-1.593c0-.47.202-.732.594-.732.133-.002.264.023.387.072l.19-.595a1.323 1.323 0 0 0-.44-.077l.012.012zm-7.966 1.486a1.436 1.436 0 0 0 1.516 1.486c.371.02.736-.102 1.023-.339l-.298-.499a1.249 1.249 0 0 1-.743.256.913.913 0 0 1 0-1.82c.27.003.53.093.743.256l.298-.5a1.486 1.486 0 0 0-1.023-.338 1.436 1.436 0 0 0-1.516 1.486v.012zm5.79 0v-1.415h-.617v.345a1.08 1.08 0 0 0-.892-.416 1.486 1.486 0 1 0 0 2.972 1.08 1.08 0 0 0 .892-.416v.345h.618v-1.415zm-2.3 0a.86.86 0 1 1 .862.91.853.853 0 0 1-.862-.91zm-7.462-1.486a1.487 1.487 0 1 0 .042 2.972c.428.022.848-.115 1.18-.386l-.297-.458a1.353 1.353 0 0 1-.826.297.788.788 0 0 1-.85-.695h2.11v-.238c0-.892-.553-1.486-1.35-1.486l-.009-.006zm0 .553a.705.705 0 0 1 .72.69h-1.487a.731.731 0 0 1 .756-.69h.011zm15.491.939v-2.563h-.594v1.487a1.08 1.08 0 0 0-.892-.416 1.486 1.486 0 1 0 0 2.972 1.08 1.08 0 0 0 .892-.416v.345h.594v-1.41zm1.032 1.008a.297.297 0 0 1 .205.08.276.276 0 0 1-.092.458.28.28 0 0 1-.113.024.297.297 0 0 1-.268-.173.28.28 0 0 1 .063-.31.297.297 0 0 1 .214-.08h-.01zm0 .502a.211.211 0 0 0 .154-.065.22.22 0 0 0 0-.298.22.22 0 0 0-.154-.065.223.223 0 0 0-.158.065.22.22 0 0 0 0 .298.22.22 0 0 0 .072.047.22.22 0 0 0 .095.018h-.01zm.018-.354a.119.119 0 0 1 .077.024.074.074 0 0 1 .027.063c0 .02-.007.039-.021.053a.104.104 0 0 1-.063.027l.087.098h-.069l-.08-.098h-.027v.098h-.056v-.262l.125-.003zm-.066.05v.072h.066a.062.062 0 0 0 .035 0 .03.03 0 0 0 0-.027.03.03 0 0 0 0-.026.062.062 0 0 0-.035 0l-.066-.018zm-3.27-1.206a.86.86 0 1 1 .862.91.853.853 0 0 1-.862-.91zm-20.877 0v-1.421h-.618v.345a1.08 1.08 0 0 0-.892-.416 1.486 1.486 0 1 0 0 2.972 1.08 1.08 0 0 0 .892-.416v.345h.618v-1.41zm-2.301 0a.86.86 0 1 1 .862.91.853.853 0 0 1-.868-.91h.006z" fill="#231F20"/><path fill="#FF5F00" d="M93.138 2.793h9.364v16.83h-9.364z"/><path d="M93.732 11.208a10.684 10.684 0 0 1 4.088-8.415 10.702 10.702 0 1 0 0 16.828 10.684 10.684 0 0 1-4.088-8.413z" fill="#EB001B"/><path d="M115.136 11.208a10.702 10.702 0 0 1-17.316 8.413 10.702 10.702 0 0 0 0-16.828 10.702 10.702 0 0 1 17.316 8.412v.003zm-1.023 6.63v-.345h.14v-.072h-.354v.072h.152v.345h.062zm.687 0v-.417h-.107l-.125.298-.125-.298h-.095v.417h.077v-.313l.116.271h.08l.117-.27v.315l.062-.003z" fill="#F79E1B"/><path d="M22.731.316l-3.067 14.458h-3.71L19.021.316h3.71zM38.34 9.651l1.952-5.428 1.125 5.428H38.34zm4.139 5.123h3.431L42.914.316h-3.166c-.712 0-1.313.418-1.58 1.06l-5.566 13.398h3.895l.774-2.16h4.759l.448 2.16zm-9.683-4.72c.017-3.816-5.233-4.027-5.197-5.731.011-.519.501-1.07 1.574-1.211.53-.07 1.996-.124 3.657.646l.65-3.065c-.893-.327-2.041-.641-3.47-.641-3.666 0-6.248 1.965-6.268 4.779-.025 2.082 1.842 3.242 3.248 3.935 1.445.708 1.93 1.163 1.924 1.796-.011.97-1.153 1.399-2.22 1.415-1.866.03-2.948-.508-3.81-.913l-.672 3.168c.866.401 2.466.75 4.125.768 3.897 0 6.446-1.94 6.458-4.947zM17.43.315l-6.01 14.458H7.499L4.54 3.236c-.18-.71-.335-.971-.881-1.27C2.768 1.478 1.295 1.02 0 .736l.087-.42H6.4c.804 0 1.528.54 1.71 1.474l1.563 8.367 3.86-9.84h3.897z" transform="translate(132 4)" fill="url(#a)"/></g></svg>